<?xml version="1.0" encoding="UTF-8" standalone="no"?>
<!-- Created with Inkscape (http://www.inkscape.org/) -->

<svg
   xmlns:dc="http://purl.org/dc/elements/1.1/"
   xmlns:cc="http://creativecommons.org/ns#"
   xmlns:rdf="http://www.w3.org/1999/02/22-rdf-syntax-ns#"
   xmlns:svg="http://www.w3.org/2000/svg"
   xmlns="http://www.w3.org/2000/svg"
   xmlns:sodipodi="http://sodipodi.sourceforge.net/DTD/sodipodi-0.dtd"
   xmlns:inkscape="http://www.inkscape.org/namespaces/inkscape"
   width="129.68398mm"
   height="64.346954mm"
   viewBox="0 0 129.68398 64.346954"
   version="1.1"
   id="svg4663"
   inkscape:version="0.92.2 5c3e80d, 2017-08-06"
   sodipodi:docname="CvKP-logo-full.svg">
  <defs
     id="defs4657">
    <marker
       inkscape:stockid="DotM"
       orient="auto"
       refY="0"
       refX="0"
       id="marker1348"
       style="overflow:visible"
       inkscape:isstock="true">
      <path
         inkscape:connector-curvature="0"
         id="path1346"
         d="m -2.5,-1 c 0,2.76 -2.24,5 -5,5 -2.76,0 -5,-2.24 -5,-5 0,-2.76 2.24,-5 5,-5 2.76,0 5,2.24 5,5 z"
         style="fill:#000000;fill-opacity:1;fill-rule:evenodd;stroke:#000000;stroke-width:1.00000003pt;stroke-opacity:1"
         transform="matrix(0.4,0,0,0.4,2.96,0.4)" />
    </marker>
  </defs>
  <sodipodi:namedview
     id="base"
     pagecolor="#ffffff"
     bordercolor="#666666"
     borderopacity="1.0"
     inkscape:pageopacity="0.0"
     inkscape:pageshadow="2"
     inkscape:zoom="0.35"
     inkscape:cx="-144.28163"
     inkscape:cy="-296.69488"
     inkscape:document-units="mm"
     inkscape:current-layer="layer1"
     showgrid="false"
     fit-margin-top="0"
     fit-margin-left="0"
     fit-margin-right="0"
     fit-margin-bottom="0"
     inkscape:window-width="1680"
     inkscape:window-height="1005"
     inkscape:window-x="0"
     inkscape:window-y="240"
     inkscape:window-maximized="1" />
  <metadata
     id="metadata4660">
    <rdf:RDF>
      <cc:Work
         rdf:about="">
        <dc:format>image/svg+xml</dc:format>
        <dc:type
           rdf:resource="http://purl.org/dc/dcmitype/StillImage" />
        <dc:title></dc:title>
      </cc:Work>
    </rdf:RDF>
  </metadata>
  <g
     inkscape:label="Layer 1"
     inkscape:groupmode="layer"
     id="layer1"
     transform="translate(-7.9364205,-5.9858565)">
    <text
       xml:space="preserve"
       style="font-style:normal;font-variant:normal;font-weight:300;font-stretch:normal;font-size:6.3499999px;line-height:1.25;font-family:'Helvetica Neue';-inkscape-font-specification:'Helvetica Neue Light';letter-spacing:0px;word-spacing:0px;fill:#000000;fill-opacity:1;stroke:none;stroke-width:0.26458332"
       x="42.333328"
       y="34.684525"
       id="text5310"><tspan
         sodipodi:role="line"
         id="tspan5308"
         x="42.333328"
         y="40.682045"
         style="font-size:9.87777805px;stroke-width:0.26458332" /></text>
    <g
       id="g5328"
       inkscape:export-xdpi="149.99933"
       inkscape:export-ydpi="149.99933">
      <g
         inkscape:label="Layer 1"
         id="layer1-9"
         transform="translate(-33.152731,-46.498224)">
        <path
           style="fill:#ce1b81;fill-opacity:1;stroke:#000000;stroke-width:0.76499999;stroke-miterlimit:4;stroke-dasharray:none;stroke-opacity:1"
           d="m 50.276173,88.521066 c -7.86866,-13.66688 -7.87874,-13.68573 -8.41135,-15.73057 -0.5191,-1.99294 -0.50718,-6.058265 0.0238,-8.116374 1.38978,-5.386931 6.0058,-10.002957 11.39273,-11.392736 2.09416,-0.540273 6.03155,-0.540273 8.12571,0 5.386932,1.389779 10.002952,6.005805 11.392732,11.392736 0.53863,2.087762 0.5404,6.033131 0.004,8.104544 -0.22868,0.88249 -0.75357,2.2689 -1.16641,3.0809 -1.27849,2.51457 -14.026902,24.490834 -14.251732,24.567744 -0.11677,0.04 -3.31588,-5.317854 -7.10912,-11.906244 z m 10.53171,-7.17688 c 2.364622,-0.72442 3.839132,-1.62377 5.679452,-3.46409 2.7551,-2.7551 3.82146,-5.306447 3.82146,-9.143123 0,-3.836677 -1.06636,-6.388022 -3.82146,-9.143122 -2.75511,-2.755101 -5.306452,-3.821462 -9.143132,-3.821462 -3.83667,0 -6.38802,1.066361 -9.14312,3.821462 -2.7551,2.7551 -3.82146,5.306445 -3.82146,9.143122 0,3.836676 1.06636,6.388023 3.82146,9.143123 1.80391,1.8039 3.2684,2.71008 5.57125,3.44727 1.41299,0.45233 5.58145,0.46229 7.03555,0.0168 z m -6.0069,-6.37091 c -4.45829,-3.567077 -5.94483,-6.663994 -4.6101,-9.604274 1.11917,-2.465415 4.53575,-3.158482 6.54532,-1.327742 l 0.58262,0.530776 0.8077,-0.679634 c 1.95113,-1.641764 5.117822,-0.940092 6.295292,1.394904 1.20103,2.381722 0.48034,4.774409 -2.295062,7.619589 -1.79442,1.839531 -4.25932,3.767581 -4.81665,3.767581 -0.21059,0 -1.33969,-0.76554 -2.50912,-1.7012 z"
           id="path830"
           inkscape:connector-curvature="0"
           inkscape:export-filename="/Users/kevindick/Dropbox/Projects/coronavirus-kindness/img/kindness-marker.png"
           inkscape:export-xdpi="100"
           inkscape:export-ydpi="100" />
      </g>
      <text
         id="text5306"
         y="18.809523"
         x="101.26775"
         style="font-style:normal;font-variant:normal;font-weight:300;font-stretch:normal;font-size:6.3499999px;line-height:1.25;font-family:'Helvetica Neue';-inkscape-font-specification:'Helvetica Neue Light';letter-spacing:0px;word-spacing:0px;fill:#000000;fill-opacity:1;stroke:none;stroke-width:0.26458332"
         xml:space="preserve"><tspan
           style="font-style:normal;font-variant:normal;font-weight:300;font-stretch:normal;font-size:14.11111069px;font-family:'Helvetica Neue';-inkscape-font-specification:'Helvetica Neue Light';text-align:center;text-anchor:middle;stroke-width:0.26458332"
           y="18.809523"
           x="103.22456"
           id="tspan5304"
           sodipodi:role="line">Coronavirus </tspan><tspan
           id="tspan5314"
           style="font-style:normal;font-variant:normal;font-weight:300;font-stretch:normal;font-size:14.11111069px;font-family:'Helvetica Neue';-inkscape-font-specification:'Helvetica Neue Light';text-align:center;text-anchor:middle;stroke-width:0.26458332"
           y="36.44841"
           x="103.22456"
           sodipodi:role="line">Kindness </tspan><tspan
           id="tspan5312"
           style="font-style:normal;font-variant:normal;font-weight:300;font-stretch:normal;font-size:14.11111069px;font-family:'Helvetica Neue';-inkscape-font-specification:'Helvetica Neue Light';text-align:center;text-anchor:middle;stroke-width:0.26458332"
           y="54.087299"
           x="101.26775"
           sodipodi:role="line">Project</tspan></text>
      <text
         id="text5318"
         y="70.214279"
         x="8.3910713"
         style="font-style:normal;font-variant:normal;font-weight:300;font-stretch:normal;font-size:6.3499999px;line-height:1.25;font-family:'Helvetica Neue';-inkscape-font-specification:'Helvetica Neue Light';letter-spacing:0px;word-spacing:0px;fill:#000000;fill-opacity:1;stroke:none;stroke-width:0.26458332"
         xml:space="preserve"><tspan
           style="font-style:normal;font-variant:normal;font-weight:500;font-stretch:normal;font-size:8.46666622px;font-family:'Helvetica Neue';-inkscape-font-specification:'Helvetica Neue Medium';stroke-width:0.26458332"
           y="70.214279"
           x="8.3910713"
           id="tspan5316"
           sodipodi:role="line">kindness-amid-coronavirus.com</tspan></text>
    </g>
  </g>
</svg>
